<?xml version="1.0" encoding="UTF-8" standalone="no"?>
<!DOCTYPE svg PUBLIC "-//W3C//DTD SVG 1.1//EN"
 "http://www.w3.org/Graphics/SVG/1.1/DTD/svg11.dtd">
<!-- Generated by graphviz version 2.40.1 (20161225.0304)
 -->
<!-- Title: G Pages: 1 -->
<svg width="415pt" height="614pt"
 viewBox="0.00 0.00 414.99 614.00" xmlns="http://www.w3.org/2000/svg" xmlns:xlink="http://www.w3.org/1999/xlink">
<g id="graph0" class="graph" transform="scale(1 1) rotate(0) translate(4 610)">
<title>G</title>
<polygon fill="#ffffff" stroke="transparent" points="-4,4 -4,-610 410.9896,-610 410.9896,4 -4,4"/>
<g id="clust1" class="cluster">
<title>cluster_Global</title>
<path fill="none" stroke="#c0c0c0" d="M20,-98C20,-98 386.9896,-98 386.9896,-98 392.9896,-98 398.9896,-104 398.9896,-110 398.9896,-110 398.9896,-586 398.9896,-586 398.9896,-592 392.9896,-598 386.9896,-598 386.9896,-598 20,-598 20,-598 14,-598 8,-592 8,-586 8,-586 8,-110 8,-110 8,-104 14,-98 20,-98"/>
<text text-anchor="middle" x="203.4948" y="-585.2" font-family="Times,serif" font-size="11.00" fill="#c0c0c0">Global</text>
</g>
<g id="clust2" class="cluster">
<title>cluster_\App</title>
<path fill="none" stroke="#c0c0c0" d="M216.9896,-106C216.9896,-106 378.9896,-106 378.9896,-106 384.9896,-106 390.9896,-112 390.9896,-118 390.9896,-118 390.9896,-558 390.9896,-558 390.9896,-564 384.9896,-570 378.9896,-570 378.9896,-570 216.9896,-570 216.9896,-570 210.9896,-570 204.9896,-564 204.9896,-558 204.9896,-558 204.9896,-118 204.9896,-118 204.9896,-112 210.9896,-106 216.9896,-106"/>
<text text-anchor="middle" x="297.9896" y="-557.2" font-family="Times,serif" font-size="11.00" fill="#c0c0c0">App</text>
</g>
<g id="clust3" class="cluster">
<title>cluster_\App\Models</title>
<path fill="none" stroke="#c0c0c0" d="M266.4896,-470C266.4896,-470 329.4896,-470 329.4896,-470 335.4896,-470 341.4896,-476 341.4896,-482 341.4896,-482 341.4896,-530 341.4896,-530 341.4896,-536 335.4896,-542 329.4896,-542 329.4896,-542 266.4896,-542 266.4896,-542 260.4896,-542 254.4896,-536 254.4896,-530 254.4896,-530 254.4896,-482 254.4896,-482 254.4896,-476 260.4896,-470 266.4896,-470"/>
<text text-anchor="middle" x="297.9896" y="-529.2" font-family="Times,serif" font-size="11.00" fill="#c0c0c0">Models</text>
</g>
<g id="clust4" class="cluster">
<title>cluster_\App\Exceptions</title>
<path fill="none" stroke="#c0c0c0" d="M269.9896,-194C269.9896,-194 325.9896,-194 325.9896,-194 331.9896,-194 337.9896,-200 337.9896,-206 337.9896,-206 337.9896,-254 337.9896,-254 337.9896,-260 331.9896,-266 325.9896,-266 325.9896,-266 269.9896,-266 269.9896,-266 263.9896,-266 257.9896,-260 257.9896,-254 257.9896,-254 257.9896,-206 257.9896,-206 257.9896,-200 263.9896,-194 269.9896,-194"/>
<text text-anchor="middle" x="297.9896" y="-253.2" font-family="Times,serif" font-size="11.00" fill="#c0c0c0">Exceptions</text>
</g>
<g id="clust5" class="cluster">
<title>cluster_\App\Console</title>
<path fill="none" stroke="#c0c0c0" d="M273.4896,-114C273.4896,-114 322.4896,-114 322.4896,-114 328.4896,-114 334.4896,-120 334.4896,-126 334.4896,-126 334.4896,-174 334.4896,-174 334.4896,-180 328.4896,-186 322.4896,-186 322.4896,-186 273.4896,-186 273.4896,-186 267.4896,-186 261.4896,-180 261.4896,-174 261.4896,-174 261.4896,-126 261.4896,-126 261.4896,-120 267.4896,-114 273.4896,-114"/>
<text text-anchor="middle" x="297.9896" y="-173.2" font-family="Times,serif" font-size="11.00" fill="#c0c0c0">Console</text>
</g>
<g id="clust6" class="cluster">
<title>cluster_\App\Http</title>
<path fill="none" stroke="#c0c0c0" d="M224.9896,-274C224.9896,-274 370.9896,-274 370.9896,-274 376.9896,-274 382.9896,-280 382.9896,-286 382.9896,-286 382.9896,-450 382.9896,-450 382.9896,-456 376.9896,-462 370.9896,-462 370.9896,-462 224.9896,-462 224.9896,-462 218.9896,-462 212.9896,-456 212.9896,-450 212.9896,-450 212.9896,-286 212.9896,-286 212.9896,-280 218.9896,-274 224.9896,-274"/>
<text text-anchor="middle" x="297.9896" y="-449.2" font-family="Times,serif" font-size="11.00" fill="#c0c0c0">Http</text>
</g>
<g id="clust7" class="cluster">
<title>cluster_\App\Http\Controllers</title>
<path fill="none" stroke="#c0c0c0" d="M232.9896,-362C232.9896,-362 362.9896,-362 362.9896,-362 368.9896,-362 374.9896,-368 374.9896,-374 374.9896,-374 374.9896,-422 374.9896,-422 374.9896,-428 368.9896,-434 362.9896,-434 362.9896,-434 232.9896,-434 232.9896,-434 226.9896,-434 220.9896,-428 220.9896,-422 220.9896,-422 220.9896,-374 220.9896,-374 220.9896,-368 226.9896,-362 232.9896,-362"/>
<text text-anchor="middle" x="297.9896" y="-421.2" font-family="Times,serif" font-size="11.00" fill="#c0c0c0">Controllers</text>
</g>
<g id="clust8" class="cluster">
<title>cluster_\App\Http\Middleware</title>
<path fill="none" stroke="#c0c0c0" d="M246.4896,-282C246.4896,-282 349.4896,-282 349.4896,-282 355.4896,-282 361.4896,-288 361.4896,-294 361.4896,-294 361.4896,-342 361.4896,-342 361.4896,-348 355.4896,-354 349.4896,-354 349.4896,-354 246.4896,-354 246.4896,-354 240.4896,-354 234.4896,-348 234.4896,-342 234.4896,-342 234.4896,-294 234.4896,-294 234.4896,-288 240.4896,-282 246.4896,-282"/>
<text text-anchor="middle" x="297.9896" y="-341.2" font-family="Times,serif" font-size="11.00" fill="#c0c0c0">Middleware</text>
</g>
<g id="clust9" class="cluster">
<title>cluster_Global\Laravel</title>
<path fill="none" stroke="#c0c0c0" d="M28,-346C28,-346 168.9896,-346 168.9896,-346 174.9896,-346 180.9896,-352 180.9896,-358 180.9896,-358 180.9896,-478 180.9896,-478 180.9896,-484 174.9896,-490 168.9896,-490 168.9896,-490 28,-490 28,-490 22,-490 16,-484 16,-478 16,-478 16,-358 16,-358 16,-352 22,-346 28,-346"/>
<text text-anchor="middle" x="98.4948" y="-477.2" font-family="Times,serif" font-size="11.00" fill="#c0c0c0">Laravel</text>
</g>
<g id="clust10" class="cluster">
<title>cluster_Global\Laravel\Lumen</title>
<path fill="none" stroke="#c0c0c0" d="M36,-354C36,-354 160.9896,-354 160.9896,-354 166.9896,-354 172.9896,-360 172.9896,-366 172.9896,-366 172.9896,-450 172.9896,-450 172.9896,-456 166.9896,-462 160.9896,-462 160.9896,-462 36,-462 36,-462 30,-462 24,-456 24,-450 24,-450 24,-366 24,-366 24,-360 30,-354 36,-354"/>
<text text-anchor="middle" x="98.4948" y="-449.2" font-family="Times,serif" font-size="11.00" fill="#c0c0c0">Lumen</text>
</g>
<g id="clust11" class="cluster">
<title>cluster_Global\Laravel\Lumen\Routing</title>
<path fill="none" stroke="#c0c0c0" d="M44,-362C44,-362 152.9896,-362 152.9896,-362 158.9896,-362 164.9896,-368 164.9896,-374 164.9896,-374 164.9896,-422 164.9896,-422 164.9896,-428 158.9896,-434 152.9896,-434 152.9896,-434 44,-434 44,-434 38,-434 32,-428 32,-422 32,-422 32,-374 32,-374 32,-368 38,-362 44,-362"/>
<text text-anchor="middle" x="98.4948" y="-421.2" font-family="Times,serif" font-size="11.00" fill="#c0c0c0">Routing</text>
</g>
<!-- \\App\\Models\\FizzBuzz -->
<g id="node1" class="node">
<title>\\App\\Models\\FizzBuzz</title>
<polygon fill="none" stroke="#000000" points="333.4896,-514 262.4896,-514 262.4896,-478 333.4896,-478 333.4896,-514"/>
<text text-anchor="middle" x="297.9896" y="-493.2" font-family="Courier,monospace" font-size="11.00" fill="#000000">FizzBuzz</text>
</g>
<!-- \\App\\Exceptions\\Handler -->
<g id="node2" class="node">
<title>\\App\\Exceptions\\Handler</title>
<polygon fill="none" stroke="#000000" points="329.9896,-238 265.9896,-238 265.9896,-202 329.9896,-202 329.9896,-238"/>
<text text-anchor="middle" x="297.9896" y="-217.2" font-family="Courier,monospace" font-size="11.00" fill="#000000">Handler</text>
</g>
<!-- Handler -->
<g id="node7" class="node">
<title>Handler</title>
<ellipse fill="none" stroke="#000000" cx="98.4948" cy="-72" rx="48.9926" ry="18"/>
<text text-anchor="middle" x="98.4948" y="-68.3" font-family="Times,serif" font-size="14.00" fill="#000000">Handler</text>
</g>
<!-- \\App\\Exceptions\\Handler&#45;&gt;Handler -->
<g id="edge1" class="edge">
<title>\\App\\Exceptions\\Handler&#45;&gt;Handler</title>
<path fill="none" stroke="#000000" d="M265.6004,-213.954C246.8345,-209.4141 223.3634,-201.8894 204.9896,-190 167.5225,-165.7556 134.8943,-125.0529 115.9431,-98.3608"/>
<polygon fill="none" stroke="#000000" points="118.6356,-96.1022 110.0533,-89.8898 112.8883,-100.0983 118.6356,-96.1022"/>
</g>
<!-- \\App\\Console\\Kernel -->
<g id="node3" class="node">
<title>\\App\\Console\\Kernel</title>
<polygon fill="none" stroke="#000000" points="326.4896,-158 269.4896,-158 269.4896,-122 326.4896,-122 326.4896,-158"/>
<text text-anchor="middle" x="297.9896" y="-137.2" font-family="Courier,monospace" font-size="11.00" fill="#000000">Kernel</text>
</g>
<!-- Kernel -->
<g id="node8" class="node">
<title>Kernel</title>
<ellipse fill="none" stroke="#000000" cx="98.4948" cy="-18" rx="40.8928" ry="18"/>
<text text-anchor="middle" x="98.4948" y="-14.3" font-family="Times,serif" font-size="14.00" fill="#000000">Kernel</text>
</g>
<!-- \\App\\Console\\Kernel&#45;&gt;Kernel -->
<g id="edge2" class="edge">
<title>\\App\\Console\\Kernel&#45;&gt;Kernel</title>
<path fill="none" stroke="#000000" d="M280.0876,-121.8757C258.3672,-100.7884 219.8136,-66.1668 180.9896,-45 169.61,-38.7958 156.5651,-33.7128 144.2585,-29.698"/>
<polygon fill="none" stroke="#000000" points="145.1808,-26.3197 134.593,-26.7061 143.1109,-33.0067 145.1808,-26.3197"/>
</g>
<!-- \\App\\Http\\Controllers\\FizzBuzzController -->
<g id="node4" class="node">
<title>\\App\\Http\\Controllers\\FizzBuzzController</title>
<polygon fill="none" stroke="#000000" points="366.9896,-406 228.9896,-406 228.9896,-370 366.9896,-370 366.9896,-406"/>
<text text-anchor="middle" x="297.9896" y="-385.2" font-family="Courier,monospace" font-size="11.00" fill="#000000">FizzBuzzController</text>
</g>
<!-- Controller -->
<g id="node6" class="node">
<title>Controller</title>
<ellipse fill="none" stroke="#000000" cx="98.4948" cy="-388" rx="58.4896" ry="18"/>
<text text-anchor="middle" x="98.4948" y="-384.3" font-family="Times,serif" font-size="14.00" fill="#c0c0c0">Controller</text>
</g>
<!-- \\App\\Http\\Controllers\\FizzBuzzController&#45;&gt;Controller -->
<g id="edge3" class="edge">
<title>\\App\\Http\\Controllers\\FizzBuzzController&#45;&gt;Controller</title>
<path fill="none" stroke="#000000" d="M228.7759,-388C208.9386,-388 187.3183,-388 167.4939,-388"/>
<polygon fill="none" stroke="#000000" points="167.3098,-384.5001 157.3097,-388 167.3097,-391.5001 167.3098,-384.5001"/>
</g>
<!-- \\App\\Http\\Middleware\\CorsMiddleware -->
<g id="node5" class="node">
<title>\\App\\Http\\Middleware\\CorsMiddleware</title>
<polygon fill="none" stroke="#000000" points="353.4896,-326 242.4896,-326 242.4896,-290 353.4896,-290 353.4896,-326"/>
<text text-anchor="middle" x="297.9896" y="-305.2" font-family="Courier,monospace" font-size="11.00" fill="#000000">CorsMiddleware</text>
</g>
</g>
</svg>
