<?xml version="1.0" encoding="UTF-8" standalone="no"?>
<!DOCTYPE svg PUBLIC "-//W3C//DTD SVG 1.1//EN"
 "http://www.w3.org/Graphics/SVG/1.1/DTD/svg11.dtd">
<!-- Generated by graphviz version 2.40.1 (20161225.0304)
 -->
<!-- Title: G Pages: 1 -->
<svg width="750pt" height="1626pt"
 viewBox="0.00 0.00 750.07 1626.00" xmlns="http://www.w3.org/2000/svg" xmlns:xlink="http://www.w3.org/1999/xlink">
<g id="graph0" class="graph" transform="scale(1 1) rotate(0) translate(4 1622)">
<title>G</title>
<polygon fill="#ffffff" stroke="transparent" points="-4,4 -4,-1622 746.0669,-1622 746.0669,4 -4,4"/>
<g id="clust1" class="cluster">
<title>cluster_Global</title>
<path fill="none" stroke="#c0c0c0" d="M20,-314C20,-314 722.0669,-314 722.0669,-314 728.0669,-314 734.0669,-320 734.0669,-326 734.0669,-326 734.0669,-1598 734.0669,-1598 734.0669,-1604 728.0669,-1610 722.0669,-1610 722.0669,-1610 20,-1610 20,-1610 14,-1610 8,-1604 8,-1598 8,-1598 8,-326 8,-326 8,-320 14,-314 20,-314"/>
<text text-anchor="middle" x="371.0334" y="-1597.2" font-family="Times,serif" font-size="11.00" fill="#c0c0c0">Global</text>
</g>
<g id="clust2" class="cluster">
<title>cluster_\App</title>
<path fill="none" stroke="#c0c0c0" d="M317.9769,-322C317.9769,-322 714.0669,-322 714.0669,-322 720.0669,-322 726.0669,-328 726.0669,-334 726.0669,-334 726.0669,-1418 726.0669,-1418 726.0669,-1424 720.0669,-1430 714.0669,-1430 714.0669,-1430 317.9769,-1430 317.9769,-1430 311.9769,-1430 305.9769,-1424 305.9769,-1418 305.9769,-1418 305.9769,-334 305.9769,-334 305.9769,-328 311.9769,-322 317.9769,-322"/>
<text text-anchor="middle" x="516.0219" y="-1417.2" font-family="Times,serif" font-size="11.00" fill="#c0c0c0">App</text>
</g>
<g id="clust3" class="cluster">
<title>cluster_\App\Models</title>
<path fill="none" stroke="#c0c0c0" d="M601.5669,-570C601.5669,-570 664.5669,-570 664.5669,-570 670.5669,-570 676.5669,-576 676.5669,-582 676.5669,-582 676.5669,-684 676.5669,-684 676.5669,-690 670.5669,-696 664.5669,-696 664.5669,-696 601.5669,-696 601.5669,-696 595.5669,-696 589.5669,-690 589.5669,-684 589.5669,-684 589.5669,-582 589.5669,-582 589.5669,-576 595.5669,-570 601.5669,-570"/>
<text text-anchor="middle" x="633.0669" y="-683.2" font-family="Times,serif" font-size="11.00" fill="#c0c0c0">Models</text>
</g>
<g id="clust4" class="cluster">
<title>cluster_\App\Exceptions</title>
<path fill="none" stroke="#c0c0c0" d="M605.0669,-490C605.0669,-490 661.0669,-490 661.0669,-490 667.0669,-490 673.0669,-496 673.0669,-502 673.0669,-502 673.0669,-550 673.0669,-550 673.0669,-556 667.0669,-562 661.0669,-562 661.0669,-562 605.0669,-562 605.0669,-562 599.0669,-562 593.0669,-556 593.0669,-550 593.0669,-550 593.0669,-502 593.0669,-502 593.0669,-496 599.0669,-490 605.0669,-490"/>
<text text-anchor="middle" x="633.0669" y="-549.2" font-family="Times,serif" font-size="11.00" fill="#c0c0c0">Exceptions</text>
</g>
<g id="clust5" class="cluster">
<title>cluster_\App\Providers</title>
<path fill="none" stroke="#c0c0c0" d="M561.0669,-704C561.0669,-704 705.0669,-704 705.0669,-704 711.0669,-704 717.0669,-710 717.0669,-716 717.0669,-716 717.0669,-872 717.0669,-872 717.0669,-878 711.0669,-884 705.0669,-884 705.0669,-884 561.0669,-884 561.0669,-884 555.0669,-884 549.0669,-878 549.0669,-872 549.0669,-872 549.0669,-716 549.0669,-716 549.0669,-710 555.0669,-704 561.0669,-704"/>
<text text-anchor="middle" x="633.0669" y="-871.2" font-family="Times,serif" font-size="11.00" fill="#c0c0c0">Providers</text>
</g>
<g id="clust6" class="cluster">
<title>cluster_\App\Console</title>
<path fill="none" stroke="#c0c0c0" d="M608.5669,-410C608.5669,-410 657.5669,-410 657.5669,-410 663.5669,-410 669.5669,-416 669.5669,-422 669.5669,-422 669.5669,-470 669.5669,-470 669.5669,-476 663.5669,-482 657.5669,-482 657.5669,-482 608.5669,-482 608.5669,-482 602.5669,-482 596.5669,-476 596.5669,-470 596.5669,-470 596.5669,-422 596.5669,-422 596.5669,-416 602.5669,-410 608.5669,-410"/>
<text text-anchor="middle" x="633.0669" y="-469.2" font-family="Times,serif" font-size="11.00" fill="#c0c0c0">Console</text>
</g>
<g id="clust7" class="cluster">
<title>cluster_\App\Http</title>
<path fill="none" stroke="#c0c0c0" d="M325.9769,-1052C325.9769,-1052 706.0669,-1052 706.0669,-1052 712.0669,-1052 718.0669,-1058 718.0669,-1064 718.0669,-1064 718.0669,-1390 718.0669,-1390 718.0669,-1396 712.0669,-1402 706.0669,-1402 706.0669,-1402 325.9769,-1402 325.9769,-1402 319.9769,-1402 313.9769,-1396 313.9769,-1390 313.9769,-1390 313.9769,-1064 313.9769,-1064 313.9769,-1058 319.9769,-1052 325.9769,-1052"/>
<text text-anchor="middle" x="516.0219" y="-1389.2" font-family="Times,serif" font-size="11.00" fill="#c0c0c0">Http</text>
</g>
<g id="clust8" class="cluster">
<title>cluster_\App\Http\Controllers</title>
<path fill="none" stroke="#c0c0c0" d="M333.9769,-1248C333.9769,-1248 698.0669,-1248 698.0669,-1248 704.0669,-1248 710.0669,-1254 710.0669,-1260 710.0669,-1260 710.0669,-1362 710.0669,-1362 710.0669,-1368 704.0669,-1374 698.0669,-1374 698.0669,-1374 333.9769,-1374 333.9769,-1374 327.9769,-1374 321.9769,-1368 321.9769,-1362 321.9769,-1362 321.9769,-1260 321.9769,-1260 321.9769,-1254 327.9769,-1248 333.9769,-1248"/>
<text text-anchor="middle" x="516.0219" y="-1361.2" font-family="Times,serif" font-size="11.00" fill="#c0c0c0">Controllers</text>
</g>
<g id="clust9" class="cluster">
<title>cluster_\App\Http\Middleware</title>
<path fill="none" stroke="#c0c0c0" d="M571.5669,-1060C571.5669,-1060 694.5669,-1060 694.5669,-1060 700.5669,-1060 706.5669,-1066 706.5669,-1072 706.5669,-1072 706.5669,-1228 706.5669,-1228 706.5669,-1234 700.5669,-1240 694.5669,-1240 694.5669,-1240 571.5669,-1240 571.5669,-1240 565.5669,-1240 559.5669,-1234 559.5669,-1228 559.5669,-1228 559.5669,-1072 559.5669,-1072 559.5669,-1066 565.5669,-1060 571.5669,-1060"/>
<text text-anchor="middle" x="633.0669" y="-1227.2" font-family="Times,serif" font-size="11.00" fill="#c0c0c0">Middleware</text>
</g>
<g id="clust10" class="cluster">
<title>cluster_\App\Events</title>
<path fill="none" stroke="#c0c0c0" d="M333.9769,-972C333.9769,-972 678.0669,-972 678.0669,-972 684.0669,-972 690.0669,-978 690.0669,-984 690.0669,-984 690.0669,-1032 690.0669,-1032 690.0669,-1038 684.0669,-1044 678.0669,-1044 678.0669,-1044 333.9769,-1044 333.9769,-1044 327.9769,-1044 321.9769,-1038 321.9769,-1032 321.9769,-1032 321.9769,-984 321.9769,-984 321.9769,-978 327.9769,-972 333.9769,-972"/>
<text text-anchor="middle" x="506.0219" y="-1031.2" font-family="Times,serif" font-size="11.00" fill="#c0c0c0">Events</text>
</g>
<g id="clust11" class="cluster">
<title>cluster_\App\Jobs</title>
<path fill="none" stroke="#c0c0c0" d="M333.9769,-892C333.9769,-892 671.0669,-892 671.0669,-892 677.0669,-892 683.0669,-898 683.0669,-904 683.0669,-904 683.0669,-952 683.0669,-952 683.0669,-958 677.0669,-964 671.0669,-964 671.0669,-964 333.9769,-964 333.9769,-964 327.9769,-964 321.9769,-958 321.9769,-952 321.9769,-952 321.9769,-904 321.9769,-904 321.9769,-898 327.9769,-892 333.9769,-892"/>
<text text-anchor="middle" x="502.5219" y="-951.2" font-family="Times,serif" font-size="11.00" fill="#c0c0c0">Jobs</text>
</g>
<g id="clust12" class="cluster">
<title>cluster_\App\Listeners</title>
<path fill="none" stroke="#c0c0c0" d="M578.0669,-330C578.0669,-330 688.0669,-330 688.0669,-330 694.0669,-330 700.0669,-336 700.0669,-342 700.0669,-342 700.0669,-390 700.0669,-390 700.0669,-396 694.0669,-402 688.0669,-402 688.0669,-402 578.0669,-402 578.0669,-402 572.0669,-402 566.0669,-396 566.0669,-390 566.0669,-390 566.0669,-342 566.0669,-342 566.0669,-336 572.0669,-330 578.0669,-330"/>
<text text-anchor="middle" x="633.0669" y="-389.2" font-family="Times,serif" font-size="11.00" fill="#c0c0c0">Listeners</text>
</g>
<g id="clust13" class="cluster">
<title>cluster_Global\Laravel</title>
<path fill="none" stroke="#c0c0c0" d="M246.887,-1438C246.887,-1438 497.0669,-1438 497.0669,-1438 503.0669,-1438 509.0669,-1444 509.0669,-1450 509.0669,-1450 509.0669,-1570 509.0669,-1570 509.0669,-1576 503.0669,-1582 497.0669,-1582 497.0669,-1582 246.887,-1582 246.887,-1582 240.887,-1582 234.887,-1576 234.887,-1570 234.887,-1570 234.887,-1450 234.887,-1450 234.887,-1444 240.887,-1438 246.887,-1438"/>
<text text-anchor="middle" x="371.9769" y="-1569.2" font-family="Times,serif" font-size="11.00" fill="#c0c0c0">Laravel</text>
</g>
<g id="clust14" class="cluster">
<title>cluster_Global\Laravel\Lumen</title>
<path fill="none" stroke="#c0c0c0" d="M254.887,-1446C254.887,-1446 489.0669,-1446 489.0669,-1446 495.0669,-1446 501.0669,-1452 501.0669,-1458 501.0669,-1458 501.0669,-1542 501.0669,-1542 501.0669,-1548 495.0669,-1554 489.0669,-1554 489.0669,-1554 254.887,-1554 254.887,-1554 248.887,-1554 242.887,-1548 242.887,-1542 242.887,-1542 242.887,-1458 242.887,-1458 242.887,-1452 248.887,-1446 254.887,-1446"/>
<text text-anchor="middle" x="371.9769" y="-1541.2" font-family="Times,serif" font-size="11.00" fill="#c0c0c0">Lumen</text>
</g>
<g id="clust15" class="cluster">
<title>cluster_Global\Laravel\Lumen\Providers</title>
<path fill="none" stroke="#c0c0c0" d="M262.887,-1454C262.887,-1454 481.0669,-1454 481.0669,-1454 487.0669,-1454 493.0669,-1460 493.0669,-1466 493.0669,-1466 493.0669,-1514 493.0669,-1514 493.0669,-1520 487.0669,-1526 481.0669,-1526 481.0669,-1526 262.887,-1526 262.887,-1526 256.887,-1526 250.887,-1520 250.887,-1514 250.887,-1514 250.887,-1466 250.887,-1466 250.887,-1460 256.887,-1454 262.887,-1454"/>
<text text-anchor="middle" x="371.9769" y="-1513.2" font-family="Times,serif" font-size="11.00" fill="#c0c0c0">Providers</text>
</g>
<g id="clust16" class="cluster">
<title>cluster_Global\Illuminate</title>
<path fill="none" stroke="#c0c0c0" d="M28,-876C28,-876 198.887,-876 198.887,-876 204.887,-876 210.887,-882 210.887,-888 210.887,-888 210.887,-1008 210.887,-1008 210.887,-1014 204.887,-1020 198.887,-1020 198.887,-1020 28,-1020 28,-1020 22,-1020 16,-1014 16,-1008 16,-1008 16,-888 16,-888 16,-882 22,-876 28,-876"/>
<text text-anchor="middle" x="113.4435" y="-1007.2" font-family="Times,serif" font-size="11.00" fill="#c0c0c0">Illuminate</text>
</g>
<g id="clust17" class="cluster">
<title>cluster_Global\Illuminate\Contracts</title>
<path fill="none" stroke="#c0c0c0" d="M36,-884C36,-884 190.887,-884 190.887,-884 196.887,-884 202.887,-890 202.887,-896 202.887,-896 202.887,-980 202.887,-980 202.887,-986 196.887,-992 190.887,-992 190.887,-992 36,-992 36,-992 30,-992 24,-986 24,-980 24,-980 24,-896 24,-896 24,-890 30,-884 36,-884"/>
<text text-anchor="middle" x="113.4435" y="-979.2" font-family="Times,serif" font-size="11.00" fill="#c0c0c0">Contracts</text>
</g>
<g id="clust18" class="cluster">
<title>cluster_Global\Illuminate\Contracts\Queue</title>
<path fill="none" stroke="#c0c0c0" d="M44,-892C44,-892 182.887,-892 182.887,-892 188.887,-892 194.887,-898 194.887,-904 194.887,-904 194.887,-952 194.887,-952 194.887,-958 188.887,-964 182.887,-964 182.887,-964 44,-964 44,-964 38,-964 32,-958 32,-952 32,-952 32,-904 32,-904 32,-898 38,-892 44,-892"/>
<text text-anchor="middle" x="113.4435" y="-951.2" font-family="Times,serif" font-size="11.00" fill="#c0c0c0">Queue</text>
</g>
<!-- \\App\\Models\\FizzBuzz -->
<g id="node1" class="node">
<title>\\App\\Models\\FizzBuzz</title>
<polygon fill="none" stroke="#000000" points="668.5669,-668 597.5669,-668 597.5669,-632 668.5669,-632 668.5669,-668"/>
<text text-anchor="middle" x="633.0669" y="-647.2" font-family="Courier,monospace" font-size="11.00" fill="#000000">FizzBuzz</text>
</g>
<!-- \\App\\Models\\User -->
<g id="node2" class="node">
<title>\\App\\Models\\User</title>
<polygon fill="none" stroke="#000000" points="660.0669,-614 606.0669,-614 606.0669,-578 660.0669,-578 660.0669,-614"/>
<text text-anchor="middle" x="633.0669" y="-593.2" font-family="Courier,monospace" font-size="11.00" fill="#000000">User</text>
</g>
<!-- Model -->
<g id="node24" class="node">
<title>Model</title>
<ellipse fill="none" stroke="#000000" cx="371.9769" cy="-126" rx="39.7935" ry="18"/>
<text text-anchor="middle" x="371.9769" y="-122.3" font-family="Times,serif" font-size="14.00" fill="#000000">Model</text>
</g>
<!-- \\App\\Models\\User&#45;&gt;Model -->
<g id="edge5" class="edge">
<title>\\App\\Models\\User&#45;&gt;Model</title>
<path fill="none" stroke="#000000" d="M605.973,-593.7682C586.9528,-590.6758 562.5865,-583.3423 549.0669,-566 492.3758,-493.2794 570.9985,-221.3129 509.0669,-153 487.2782,-128.9663 450.843,-122.6745 421.0098,-122.1468"/>
<polygon fill="none" stroke="#000000" points="420.7558,-118.6475 410.7675,-122.1809 420.7792,-125.6475 420.7558,-118.6475"/>
</g>
<!-- Authenticatable -->
<g id="node25" class="node">
<title>Authenticatable</title>
<ellipse fill="none" stroke="#000000" cx="371.9769" cy="-234" rx="85.2851" ry="18"/>
<text text-anchor="middle" x="371.9769" y="-230.3" font-family="Times,serif" font-size="14.00" fill="#000000">Authenticatable</text>
</g>
<!-- \\App\\Models\\User&#45;&gt;Authenticatable -->
<g id="edge6" class="edge">
<title>\\App\\Models\\User&#45;&gt;Authenticatable</title>
<path fill="none" stroke="#000000" stroke-dasharray="1,5" d="M605.7456,-593.5632C586.8702,-590.3657 562.7808,-582.9905 549.0669,-566 463.1976,-459.6147 602.5945,-360.7193 509.0669,-261 497.8668,-249.0585 483.0437,-241.5368 467.2864,-236.9346"/>
<polygon fill="none" stroke="#000000" points="467.9311,-233.4876 457.3785,-234.4328 466.2173,-240.2746 467.9311,-233.4876"/>
</g>
<!-- Authorizable -->
<g id="node26" class="node">
<title>Authorizable</title>
<ellipse fill="none" stroke="#000000" cx="371.9769" cy="-180" rx="70.3881" ry="18"/>
<text text-anchor="middle" x="371.9769" y="-176.3" font-family="Times,serif" font-size="14.00" fill="#000000">Authorizable</text>
</g>
<!-- \\App\\Models\\User&#45;&gt;Authorizable -->
<g id="edge7" class="edge">
<title>\\App\\Models\\User&#45;&gt;Authorizable</title>
<path fill="none" stroke="#000000" stroke-dasharray="1,5" d="M606.0471,-593.71C587.0637,-590.5886 562.7111,-583.2444 549.0669,-566 449.4516,-440.1 617.7509,-325.1601 509.0669,-207 494.3941,-191.0478 473.2637,-182.9419 451.9709,-179.1485"/>
<polygon fill="none" stroke="#000000" points="452.2712,-175.655 441.8671,-177.6567 451.2486,-182.5799 452.2712,-175.655"/>
</g>
<!-- \\App\\Exceptions\\Handler -->
<g id="node3" class="node">
<title>\\App\\Exceptions\\Handler</title>
<polygon fill="none" stroke="#000000" points="665.0669,-534 601.0669,-534 601.0669,-498 665.0669,-498 665.0669,-534"/>
<text text-anchor="middle" x="633.0669" y="-513.2" font-family="Courier,monospace" font-size="11.00" fill="#000000">Handler</text>
</g>
<!-- Handler -->
<g id="node21" class="node">
<title>Handler</title>
<ellipse fill="none" stroke="#000000" cx="371.9769" cy="-72" rx="48.9926" ry="18"/>
<text text-anchor="middle" x="371.9769" y="-68.3" font-family="Times,serif" font-size="14.00" fill="#000000">Handler</text>
</g>
<!-- \\App\\Exceptions\\Handler&#45;&gt;Handler -->
<g id="edge1" class="edge">
<title>\\App\\Exceptions\\Handler&#45;&gt;Handler</title>
<path fill="none" stroke="#000000" d="M600.6645,-512.7785C582.6325,-509.2098 561.3995,-501.7149 549.0669,-486 495.6911,-417.9851 567.3431,-162.8662 509.0669,-99 489.3351,-77.3755 457.7421,-70.1388 429.8557,-68.5303"/>
<polygon fill="none" stroke="#000000" points="429.8951,-65.0297 419.7783,-68.1762 429.6491,-72.0253 429.8951,-65.0297"/>
</g>
<!-- \\App\\Providers\\AuthServiceProvider -->
<g id="node4" class="node">
<title>\\App\\Providers\\AuthServiceProvider</title>
<polygon fill="none" stroke="#000000" points="705.5669,-748 560.5669,-748 560.5669,-712 705.5669,-712 705.5669,-748"/>
<text text-anchor="middle" x="633.0669" y="-727.2" font-family="Courier,monospace" font-size="11.00" fill="#000000">AuthServiceProvider</text>
</g>
<!-- ServiceProvider -->
<g id="node22" class="node">
<title>ServiceProvider</title>
<ellipse fill="none" stroke="#000000" cx="371.9769" cy="-288" rx="85.5853" ry="18"/>
<text text-anchor="middle" x="371.9769" y="-284.3" font-family="Times,serif" font-size="14.00" fill="#000000">ServiceProvider</text>
</g>
<!-- \\App\\Providers\\AuthServiceProvider&#45;&gt;ServiceProvider -->
<g id="edge2" class="edge">
<title>\\App\\Providers\\AuthServiceProvider&#45;&gt;ServiceProvider</title>
<path fill="none" stroke="#000000" d="M565.8775,-711.9496C559.7752,-708.611 554.034,-704.664 549.0669,-700 431.9484,-590.0293 388.5778,-389.6543 376.1604,-316.0695"/>
<polygon fill="none" stroke="#000000" points="379.6084,-315.4666 374.5478,-306.1585 372.6993,-316.5908 379.6084,-315.4666"/>
</g>
<!-- \\App\\Providers\\AppServiceProvider -->
<g id="node5" class="node">
<title>\\App\\Providers\\AppServiceProvider</title>
<polygon fill="none" stroke="#000000" points="702.0669,-802 564.0669,-802 564.0669,-766 702.0669,-766 702.0669,-802"/>
<text text-anchor="middle" x="633.0669" y="-781.2" font-family="Courier,monospace" font-size="11.00" fill="#000000">AppServiceProvider</text>
</g>
<!-- \\App\\Providers\\AppServiceProvider&#45;&gt;ServiceProvider -->
<g id="edge8" class="edge">
<title>\\App\\Providers\\AppServiceProvider&#45;&gt;ServiceProvider</title>
<path fill="none" stroke="#000000" d="M564.0604,-767.7905C558.6096,-764.7853 553.5066,-761.2229 549.0669,-757 417.1624,-631.5364 382.5832,-398.0076 374.3454,-316.7544"/>
<polygon fill="none" stroke="#000000" points="377.7846,-315.9492 373.3505,-306.3269 370.8162,-316.6142 377.7846,-315.9492"/>
</g>
<!-- \\App\\Providers\\EventServiceProvider -->
<g id="node6" class="node">
<title>\\App\\Providers\\EventServiceProvider</title>
<polygon fill="none" stroke="#000000" points="709.0669,-856 557.0669,-856 557.0669,-820 709.0669,-820 709.0669,-856"/>
<text text-anchor="middle" x="633.0669" y="-835.2" font-family="Courier,monospace" font-size="11.00" fill="#000000">EventServiceProvider</text>
</g>
<!-- EventServiceProvider -->
<g id="node19" class="node">
<title>EventServiceProvider</title>
<ellipse fill="none" stroke="#000000" cx="371.9769" cy="-1480" rx="113.18" ry="18"/>
<text text-anchor="middle" x="371.9769" y="-1476.3" font-family="Times,serif" font-size="14.00" fill="#c0c0c0">EventServiceProvider</text>
</g>
<!-- \\App\\Providers\\EventServiceProvider&#45;&gt;EventServiceProvider -->
<g id="edge13" class="edge">
<title>\\App\\Providers\\EventServiceProvider&#45;&gt;EventServiceProvider</title>
<path fill="none" stroke="#000000" d="M585.3088,-856.2215C571.3666,-863.9076 557.5992,-874.32 549.0669,-888 491.2502,-980.6986 562.0464,-1282.4543 509.0669,-1378 489.0341,-1414.128 450.2314,-1441.1327 419.0066,-1458.2495"/>
<polygon fill="none" stroke="#000000" points="417.1972,-1455.2474 410.0066,-1463.0286 420.4802,-1461.4298 417.1972,-1455.2474"/>
</g>
<!-- \\App\\Console\\Kernel -->
<g id="node7" class="node">
<title>\\App\\Console\\Kernel</title>
<polygon fill="none" stroke="#000000" points="661.5669,-454 604.5669,-454 604.5669,-418 661.5669,-418 661.5669,-454"/>
<text text-anchor="middle" x="633.0669" y="-433.2" font-family="Courier,monospace" font-size="11.00" fill="#000000">Kernel</text>
</g>
<!-- Kernel -->
<g id="node23" class="node">
<title>Kernel</title>
<ellipse fill="none" stroke="#000000" cx="371.9769" cy="-18" rx="40.8928" ry="18"/>
<text text-anchor="middle" x="371.9769" y="-14.3" font-family="Times,serif" font-size="14.00" fill="#000000">Kernel</text>
</g>
<!-- \\App\\Console\\Kernel&#45;&gt;Kernel -->
<g id="edge3" class="edge">
<title>\\App\\Console\\Kernel&#45;&gt;Kernel</title>
<path fill="none" stroke="#000000" d="M604.4272,-433.4386C585.6955,-430.1707 562.3216,-422.7627 549.0669,-406 448.942,-279.3766 618.3127,-163.8437 509.0669,-45 487.48,-21.5166 451.8994,-15.0342 422.3965,-14.2834"/>
<polygon fill="none" stroke="#000000" points="422.2628,-10.7829 412.2473,-14.2385 422.2317,-17.7829 422.2628,-10.7829"/>
</g>
<!-- \\App\\Http\\Controllers\\FizzBuzzController -->
<g id="node8" class="node">
<title>\\App\\Http\\Controllers\\FizzBuzzController</title>
<polygon fill="none" stroke="#000000" points="702.0669,-1346 564.0669,-1346 564.0669,-1310 702.0669,-1310 702.0669,-1346"/>
<text text-anchor="middle" x="633.0669" y="-1325.2" font-family="Courier,monospace" font-size="11.00" fill="#000000">FizzBuzzController</text>
</g>
<!-- \\App\\Http\\Controllers\\Controller -->
<g id="node10" class="node">
<title>\\App\\Http\\Controllers\\Controller</title>
<polygon fill="none" stroke="#000000" points="413.9769,-1292 329.9769,-1292 329.9769,-1256 413.9769,-1256 413.9769,-1292"/>
<text text-anchor="middle" x="371.9769" y="-1271.2" font-family="Courier,monospace" font-size="11.00" fill="#000000">Controller</text>
</g>
<!-- \\App\\Http\\Controllers\\FizzBuzzController&#45;&gt;\\App\\Http\\Controllers\\Controller -->
<g id="edge4" class="edge">
<title>\\App\\Http\\Controllers\\FizzBuzzController&#45;&gt;\\App\\Http\\Controllers\\Controller</title>
<path fill="none" stroke="#000000" d="M563.785,-1313.6708C519.915,-1304.5973 464.1074,-1293.0549 424.0157,-1284.7629"/>
<polygon fill="none" stroke="#000000" points="424.6799,-1281.3263 414.1783,-1282.7283 423.2621,-1288.1812 424.6799,-1281.3263"/>
</g>
<!-- \\App\\Http\\Controllers\\ExampleController -->
<g id="node9" class="node">
<title>\\App\\Http\\Controllers\\ExampleController</title>
<polygon fill="none" stroke="#000000" points="698.5669,-1292 567.5669,-1292 567.5669,-1256 698.5669,-1256 698.5669,-1292"/>
<text text-anchor="middle" x="633.0669" y="-1271.2" font-family="Courier,monospace" font-size="11.00" fill="#000000">ExampleController</text>
</g>
<!-- \\App\\Http\\Controllers\\ExampleController&#45;&gt;\\App\\Http\\Controllers\\Controller -->
<g id="edge9" class="edge">
<title>\\App\\Http\\Controllers\\ExampleController&#45;&gt;\\App\\Http\\Controllers\\Controller</title>
<path fill="none" stroke="#000000" d="M567.5199,-1274C523.2373,-1274 465.5583,-1274 424.3411,-1274"/>
<polygon fill="none" stroke="#000000" points="424.2351,-1270.5001 414.235,-1274 424.235,-1277.5001 424.2351,-1270.5001"/>
</g>
<!-- Controller -->
<g id="node27" class="node">
<title>Controller</title>
<ellipse fill="none" stroke="#000000" cx="113.4435" cy="-288" rx="58.4896" ry="18"/>
<text text-anchor="middle" x="113.4435" y="-284.3" font-family="Times,serif" font-size="14.00" fill="#000000">Controller</text>
</g>
<!-- \\App\\Http\\Controllers\\Controller&#45;&gt;Controller -->
<g id="edge12" class="edge">
<title>\\App\\Http\\Controllers\\Controller&#45;&gt;Controller</title>
<path fill="none" stroke="#000000" d="M357.52,-1255.9534C328.9345,-1219.2316 265.3253,-1132.1505 234.887,-1048 210.4282,-980.3809 221.984,-959.0452 210.887,-888 176.4488,-667.5207 132.4191,-401.9075 118.1394,-316.1494"/>
<polygon fill="none" stroke="#000000" points="121.5695,-315.4393 116.4736,-306.1504 114.6646,-316.5897 121.5695,-315.4393"/>
</g>
<!-- \\App\\Http\\Middleware\\ExampleMiddleware -->
<g id="node11" class="node">
<title>\\App\\Http\\Middleware\\ExampleMiddleware</title>
<polygon fill="none" stroke="#000000" points="698.5669,-1212 567.5669,-1212 567.5669,-1176 698.5669,-1176 698.5669,-1212"/>
<text text-anchor="middle" x="633.0669" y="-1191.2" font-family="Courier,monospace" font-size="11.00" fill="#000000">ExampleMiddleware</text>
</g>
<!-- \\App\\Http\\Middleware\\Authenticate -->
<g id="node12" class="node">
<title>\\App\\Http\\Middleware\\Authenticate</title>
<polygon fill="none" stroke="#000000" points="682.0669,-1158 584.0669,-1158 584.0669,-1122 682.0669,-1122 682.0669,-1158"/>
<text text-anchor="middle" x="633.0669" y="-1137.2" font-family="Courier,monospace" font-size="11.00" fill="#000000">Authenticate</text>
</g>
<!-- \\App\\Http\\Middleware\\CorsMiddleware -->
<g id="node13" class="node">
<title>\\App\\Http\\Middleware\\CorsMiddleware</title>
<polygon fill="none" stroke="#000000" points="688.5669,-1104 577.5669,-1104 577.5669,-1068 688.5669,-1068 688.5669,-1104"/>
<text text-anchor="middle" x="633.0669" y="-1083.2" font-family="Courier,monospace" font-size="11.00" fill="#000000">CorsMiddleware</text>
</g>
<!-- \\App\\Events\\Event -->
<g id="node14" class="node">
<title>\\App\\Events\\Event</title>
<polygon fill="none" stroke="#000000" points="413.9769,-1016 329.9769,-1016 329.9769,-980 413.9769,-980 413.9769,-1016"/>
<text text-anchor="start" x="337.9769" y="-1001.2" font-family="Courier,monospace" font-size="11.00" fill="#000000">«abstract»</text>
<text text-anchor="start" x="354.9769" y="-989.2" font-family="Courier,monospace" font-size="11.00" fill="#000000">Event</text>
</g>
<!-- \\App\\Events\\ExampleEvent -->
<g id="node15" class="node">
<title>\\App\\Events\\ExampleEvent</title>
<polygon fill="none" stroke="#000000" points="682.0669,-1016 584.0669,-1016 584.0669,-980 682.0669,-980 682.0669,-1016"/>
<text text-anchor="middle" x="633.0669" y="-995.2" font-family="Courier,monospace" font-size="11.00" fill="#000000">ExampleEvent</text>
</g>
<!-- \\App\\Events\\ExampleEvent&#45;&gt;\\App\\Events\\Event -->
<g id="edge11" class="edge">
<title>\\App\\Events\\ExampleEvent&#45;&gt;\\App\\Events\\Event</title>
<path fill="none" stroke="#000000" d="M583.9579,-998C538.5013,-998 471.1111,-998 424.5733,-998"/>
<polygon fill="none" stroke="#000000" points="424.3907,-994.5001 414.3906,-998 424.3906,-1001.5001 424.3907,-994.5001"/>
</g>
<!-- \\App\\Jobs\\Job -->
<g id="node16" class="node">
<title>\\App\\Jobs\\Job</title>
<polygon fill="none" stroke="#000000" points="413.9769,-936 329.9769,-936 329.9769,-900 413.9769,-900 413.9769,-936"/>
<text text-anchor="start" x="337.9769" y="-921.2" font-family="Courier,monospace" font-size="11.00" fill="#000000">«abstract»</text>
<text text-anchor="start" x="361.4769" y="-909.2" font-family="Courier,monospace" font-size="11.00" fill="#000000">Job</text>
</g>
<!-- ShouldQueue -->
<g id="node20" class="node">
<title>ShouldQueue</title>
<ellipse fill="none" stroke="#000000" cx="113.4435" cy="-918" rx="73.387" ry="18"/>
<text text-anchor="middle" x="113.4435" y="-914.3" font-family="Times,serif" font-size="14.00" fill="#c0c0c0">ShouldQueue</text>
</g>
<!-- \\App\\Jobs\\Job&#45;&gt;ShouldQueue -->
<g id="edge10" class="edge">
<title>\\App\\Jobs\\Job&#45;&gt;ShouldQueue</title>
<path fill="none" stroke="#000000" stroke-dasharray="1,5" d="M329.8637,-918C294.023,-918 241.451,-918 197.0973,-918"/>
<polygon fill="none" stroke="#000000" points="196.8939,-914.5001 186.8939,-918 196.8939,-921.5001 196.8939,-914.5001"/>
</g>
<!-- \\App\\Jobs\\ExampleJob -->
<g id="node17" class="node">
<title>\\App\\Jobs\\ExampleJob</title>
<polygon fill="none" stroke="#000000" points="675.0669,-936 591.0669,-936 591.0669,-900 675.0669,-900 675.0669,-936"/>
<text text-anchor="middle" x="633.0669" y="-915.2" font-family="Courier,monospace" font-size="11.00" fill="#000000">ExampleJob</text>
</g>
<!-- \\App\\Jobs\\ExampleJob&#45;&gt;\\App\\Jobs\\Job -->
<g id="edge14" class="edge">
<title>\\App\\Jobs\\ExampleJob&#45;&gt;\\App\\Jobs\\Job</title>
<path fill="none" stroke="#000000" d="M590.8281,-918C545.4206,-918 473.1795,-918 424.229,-918"/>
<polygon fill="none" stroke="#000000" points="424.1551,-914.5001 414.155,-918 424.155,-921.5001 424.1551,-914.5001"/>
</g>
<!-- \\App\\Listeners\\ExampleListener -->
<g id="node18" class="node">
<title>\\App\\Listeners\\ExampleListener</title>
<polygon fill="none" stroke="#000000" points="692.0669,-374 574.0669,-374 574.0669,-338 692.0669,-338 692.0669,-374"/>
<text text-anchor="middle" x="633.0669" y="-353.2" font-family="Courier,monospace" font-size="11.00" fill="#000000">ExampleListener</text>
</g>
</g>
</svg>
